<svg xmlns="http://www.w3.org/2000/svg" viewBox="0 0 217.01 70.52"><defs><style>.cls-1{fill:#ffd900;fill-rule:evenodd;}</style></defs><title>Asset 4</title><g id="Layer_2" data-name="Layer 2"><g id="Layer_1-2" data-name="Layer 1"><path id="Logo_BG" data-name="Logo BG" class="cls-1" d="M0,0H217V70.52H0Z"/><path d="M38,21.14q.8-4.92,5.75-4.92c2.85,0,5.81.12,8.86.37l-.56,3.64H44.43a2.2,2.2,0,0,0-1.55.5,2.57,2.57,0,0,0-.67,1.56l-.53,3.49L49.8,26l-.56,3.44-8.17.2-1.33,8.27H35.4Zm22.21,17c-2.38,0-4.17-.51-5.34-1.55s-1.77-2.7-1.77-5a21,21,0,0,1,.39-3.67l1.85-11.67h4.34L57.78,28.53a21.73,21.73,0,0,0-.29,2.67,3,3,0,0,0,.78,2.28,3.75,3.75,0,0,0,2.56.72,5.2,5.2,0,0,0,2.33-.45,3.61,3.61,0,0,0,1.51-1.67,12.51,12.51,0,0,0,1-3.55l2-12.31h4.33l-2,13a14.93,14.93,0,0,1-1.81,5.62A6.14,6.14,0,0,1,65,37.42,14,14,0,0,1,60.25,38.09Zm16.91-.17A4.74,4.74,0,0,1,74,37a3.69,3.69,0,0,1-1.13-3,10.64,10.64,0,0,1,.09-1.34l2.61-16.42H79.9L77.4,32.08a2.12,2.12,0,0,0-.06.56,1.26,1.26,0,0,0,.42,1.06A2.18,2.18,0,0,0,79,34h6.87l-.65,3.91Zm15.61,0a4.75,4.75,0,0,1-3.19-1,3.69,3.69,0,0,1-1.13-3,9.11,9.11,0,0,1,.1-1.34l2.61-16.42H95.5L93,32.08a2.12,2.12,0,0,0-.06.56,1.26,1.26,0,0,0,.42,1.06,2.18,2.18,0,0,0,1.28.31h6.88l-.66,3.91Zm24.92.17a38.53,38.53,0,0,1-4-.2,28.4,28.4,0,0,1-3.17-.5l.53-3.42q2.81.22,6.54.23a6.6,6.6,0,0,0,2.83-.45,2.18,2.18,0,0,0,1.1-1.69l.12-.77a4.43,4.43,0,0,0,.06-.59,1.23,1.23,0,0,0-.59-1.16,3.87,3.87,0,0,0-1.87-.35h-1.74a5.47,5.47,0,0,1-3.81-1.25,4.29,4.29,0,0,1-1.38-3.33,7.67,7.67,0,0,1,.1-1.24l.28-1.76a5.91,5.91,0,0,1,2.4-4.27,9.6,9.6,0,0,1,5.35-1.3c1,0,2.11.07,3.3.19a27.69,27.69,0,0,1,3.32.55l-.56,3.42c-1.81-.16-4-.23-6.59-.23a4.2,4.2,0,0,0-2.21.47,2.25,2.25,0,0,0-1,1.67l-.11.76a4.83,4.83,0,0,0-.07.64,1.46,1.46,0,0,0,.47,1.21,2.47,2.47,0,0,0,1.5.36h1.85a6,6,0,0,1,4.11,1.25,4.17,4.17,0,0,1,1.43,3.32,9,9,0,0,1-.09,1.18l-.3,2a5.65,5.65,0,0,1-2.26,4A10.13,10.13,0,0,1,117.69,38.09Zm14.93,0a6.3,6.3,0,0,1-3.25-.81,3.22,3.22,0,0,1-1.37-3,6.71,6.71,0,0,1,.08-1.08l1.9-12q.77-5,5.81-5,3.92,0,8.86.37l-.59,3.64H136.4a2.18,2.18,0,0,0-1.54.5,2.71,2.71,0,0,0-.71,1.56l-.43,2.82,8.12.26-.56,3.42-8.19.24-.47,3a4.52,4.52,0,0,0-.06.55A1.28,1.28,0,0,0,133,33.7a2.38,2.38,0,0,0,1.36.31h7.53l-.55,3.64C137.66,37.93,134.76,38.07,132.62,38.09ZM148.2,16.22h3.48l6.82,14.31,2.28-14.31h4.34l-3.45,21.7H158.2l-6.8-14.34-2.29,14.34h-4.35Zm20.32,0h8.24q4.05,0,5.67,1.93a8.53,8.53,0,0,1,1.64,5.63,22.8,22.8,0,0,1-.36,4q-.81,5.28-3.36,7.73a9.82,9.82,0,0,1-7.11,2.44h-8.15ZM173.68,34a4.49,4.49,0,0,0,3.8-1.73A11.76,11.76,0,0,0,179.37,27a22,22,0,0,0,.33-3,4,4,0,0,0-.91-3,4.38,4.38,0,0,0-3.11-.88h-3.44L170.06,34Z"/><path d="M37.91,47.7h3.77c1.78,0,2.67.82,2.67,2.45a5.61,5.61,0,0,1-.08.85,3.21,3.21,0,0,1-.73,1.79,3.59,3.59,0,0,1-1.22.8l1.2,4h-2l-1-3.67H38.91l-.59,3.67h-2Zm2.91,4.63a1.38,1.38,0,0,0,1-.32,2,2,0,0,0,.47-1.14,2.47,2.47,0,0,0,0-.44q0-1-1-1H39.6l-.46,2.86ZM49,47.7h2.48L53,57.56H50.89l-.28-2.06H47.25l-1,2.06h-2Zm1.46,6-.51-4.32L48,53.72Zm7.16,3.92a3.17,3.17,0,0,1-2.43-.86,3.52,3.52,0,0,1-.8-2.49,13,13,0,0,1,.17-2,7.22,7.22,0,0,1,1.34-3.55,3.49,3.49,0,0,1,2.82-1.16,8.66,8.66,0,0,1,3.18.55l-.25,1.56A10,10,0,0,0,59,49.39a2.54,2.54,0,0,0-1.22.26,2,2,0,0,0-.8,1,8.62,8.62,0,0,0-.55,2.06,12.3,12.3,0,0,0-.15,1.63,1.57,1.57,0,0,0,.39,1.2,2.09,2.09,0,0,0,1.39.36c.55,0,1,0,1.36,0s.77-.08,1.22-.14l-.27,1.55A8.65,8.65,0,0,1,57.58,57.64Zm6.48,0a2.82,2.82,0,0,1-1.47-.38A1.46,1.46,0,0,1,62,55.9a4.12,4.12,0,0,1,0-.48L62.87,50a2.4,2.4,0,0,1,2.64-2.27c1.18,0,2.52.06,4,.17l-.27,1.66H65.78a1,1,0,0,0-.7.23,1.24,1.24,0,0,0-.32.69l-.2,1.28,3.69.13L68,53.42l-3.72.11-.22,1.36c0,.12,0,.21,0,.26a.62.62,0,0,0,.18.5,1.09,1.09,0,0,0,.63.14h3.42L68,57.43C66.35,57.56,65,57.63,64.06,57.64Zm11.74,0a2.38,2.38,0,0,1-2-.74,3.79,3.79,0,0,1-.59-2.37,15.49,15.49,0,0,1,.22-2.31,6.48,6.48,0,0,1,1.4-3.46,3.76,3.76,0,0,1,2.91-1.15,12.3,12.3,0,0,1,1.87.12,8.19,8.19,0,0,1,1.5.35l-.23,1.53A15.35,15.35,0,0,0,78,49.37a2.43,2.43,0,0,0-1.35.33,2.08,2.08,0,0,0-.78,1,10.05,10.05,0,0,0-.47,1.93,13.28,13.28,0,0,0-.15,1.72,1.72,1.72,0,0,0,.29,1.08,1.18,1.18,0,0,0,1,.36,7,7,0,0,0,1-.09c.41-.07.73-.13,1-.19l.29-1.92H77L77.29,52,78,52c.41,0,.92-.06,1.51-.06s1,0,1.46,0l-.89,5.61H78.6l-.17-.67a6.4,6.4,0,0,1-2.63.75Zm7.4-9.94H87c1.79,0,2.68.82,2.68,2.45a5.61,5.61,0,0,1-.08.85,3.14,3.14,0,0,1-.74,1.79,3.45,3.45,0,0,1-1.21.8l1.2,4h-2l-1-3.67H84.2l-.59,3.67h-2Zm2.91,4.63a1.38,1.38,0,0,0,1-.32,2,2,0,0,0,.47-1.14,2.47,2.47,0,0,0,0-.44q0-1-1-1H84.89l-.46,2.86Zm8.13-4.63h2.49l1.51,9.86H96.18L95.9,55.5H92.54l-1,2.06h-2Zm1.47,6L95.2,49.4l-1.92,4.32Zm5.2-6h3.74a3.18,3.18,0,0,1,2.57.88,3.82,3.82,0,0,1,.75,2.56,11.09,11.09,0,0,1-.15,1.79,6,6,0,0,1-1.53,3.52,4.49,4.49,0,0,1-3.24,1.11h-3.7Zm2.35,8.09A2,2,0,0,0,105,55a5.19,5.19,0,0,0,.86-2.39,9.09,9.09,0,0,0,.16-1.39,1.79,1.79,0,0,0-.42-1.35,2,2,0,0,0-1.41-.4H102.6l-1,6.32Zm7.64,1.85a2.77,2.77,0,0,1-1.47-.38,1.45,1.45,0,0,1-.63-1.36,4.12,4.12,0,0,1,0-.48l.88-5.45a2.4,2.4,0,0,1,2.64-2.27c1.18,0,2.52.06,4,.17l-.27,1.66h-3.48a1,1,0,0,0-.71.23,1.23,1.23,0,0,0-.31.69l-.2,1.28,3.68.13-.25,1.56-3.71.11-.22,1.36c0,.12,0,.21,0,.26a.59.59,0,0,0,.19.5,1,1,0,0,0,.62.14h3.43l-.25,1.64C113.19,57.56,111.87,57.63,110.9,57.64Zm10-7.71a2.39,2.39,0,0,1,2.61-2.23c1.3,0,2.63.06,4,.17l-.25,1.66h-3.47a1.05,1.05,0,0,0-.72.23,1.23,1.23,0,0,0-.3.69L122.54,52l3.71.11L126,53.7l-3.72.09-.61,3.77h-2Zm7.88-2.23h3.92a2.74,2.74,0,0,1,1.89.61,2.53,2.53,0,0,1,.71,2,7.58,7.58,0,0,1-.13,1,3.78,3.78,0,0,1-1.11,2.39,3,3,0,0,1-2,.72c-.41,0-.84,0-1.26-.06s-.79-.11-1.08-.17l-.53,3.31h-2Zm3,5a1.23,1.23,0,0,0,.94-.41,2.23,2.23,0,0,0,.5-1.14,4.72,4.72,0,0,0,.06-.64,1.17,1.17,0,0,0-.23-.81.94.94,0,0,0-.72-.25h-1.86l-.5,3.25Zm4.6-5h2.05l1.06,7.72L143,47.7h2l-4.7,9.86h-2.47Zm14.47,9.94a2.38,2.38,0,0,1-1.95-.74,3.86,3.86,0,0,1-.59-2.37,15.49,15.49,0,0,1,.22-2.31,6.48,6.48,0,0,1,1.4-3.46,3.76,3.76,0,0,1,2.91-1.15,12.3,12.3,0,0,1,1.87.12,8.19,8.19,0,0,1,1.5.35L156,49.61a15.35,15.35,0,0,0-2.92-.24,2.43,2.43,0,0,0-1.35.33,2.08,2.08,0,0,0-.78,1,10.86,10.86,0,0,0-.47,1.93,13.28,13.28,0,0,0-.15,1.72,1.72,1.72,0,0,0,.29,1.08,1.18,1.18,0,0,0,1,.36,7,7,0,0,0,1-.09c.41-.07.73-.13,1-.19l.29-1.92h-1.76l.25-1.57.72-.06c.41,0,.92-.06,1.51-.06s1,0,1.46,0l-.89,5.61h-1.49l-.17-.67a6.4,6.4,0,0,1-2.63.75Zm8.23,0a2.8,2.8,0,0,1-1.47-.38A1.45,1.45,0,0,1,157,55.9a4.12,4.12,0,0,1,0-.48l.88-5.45a2.4,2.4,0,0,1,2.64-2.27c1.18,0,2.52.06,4,.17l-.27,1.66H160.8a1,1,0,0,0-.71.23,1.23,1.23,0,0,0-.31.69l-.2,1.28,3.68.13L163,53.42l-3.71.11-.22,1.36c0,.12,0,.21,0,.26a.59.59,0,0,0,.19.5,1,1,0,0,0,.62.14h3.43l-.25,1.64C161.37,57.56,160.05,57.63,159.08,57.64Zm9.7-9.94h2.48l1.52,9.86h-2.07l-.28-2.06h-3.36l-1,2.06h-2Zm1.46,6-.51-4.32-1.92,4.32Zm5.2-6h3.77c1.78,0,2.67.82,2.67,2.45a5.61,5.61,0,0,1-.08.85,3.14,3.14,0,0,1-.73,1.79,3.49,3.49,0,0,1-1.22.8l1.2,4h-2l-1-3.67h-1.6l-.59,3.67h-2Zm2.91,4.63a1.36,1.36,0,0,0,1-.32,2,2,0,0,0,.47-1.14,2.47,2.47,0,0,0,0-.44q0-1-1-1h-1.67l-.45,2.86Z"/></g></g></svg>